{
  "source": "C:\\Users\\Peter\\Desktop\\stuff\\MIUN\\quantitative_research\\video_compression\\videos\\BVI-HD\\Typing_1920x1080_60fps.mp4",
  "output": "C:\\Users\\Peter\\Desktop\\stuff\\MIUN\\quantitative_research\\video_compression\\compressed_videos\\BVI-HD\\hevc\\12\\Typing_1920x1080_60fps_hevc.mp4",
  "codec": "hevc",
  "ok": "Input #0, mov,mp4,m4a,3gp,3g2,mj2, from 'C:\\Users\\Peter\\Desktop\\stuff\\MIUN\\quantitative_research\\video_compression\\videos\\BVI-HD\\Typing_1920x1080_60fps.mp4':\n  Metadata:\n    major_brand     : isom\n    minor_version   : 512\n    compatible_brands: isomiso2avc1mp41\n    encoder         : Lavf54.28.101\n  Duration: 00:00:05.00, start: 0.000000, bitrate: 203453 kb/s\n  Stream #0:0[0x1](und): Video: h264 (High 4:4:4 Predictive) (avc1 / 0x31637661), yuv420p(progressive), 1920x1080, 203448 kb/s, 60 fps, 60 tbr, 60 tbn (default)\n    Metadata:\n      handler_name    : VideoHandler\n      vendor_id       : [0][0][0][0]\n[out#0/mp4 @ 000001f60fc1ab80] Codec AVOption b:a (set bitrate (in bits/s)) has not been used for any stream. The most likely reason is either wrong type (e.g. a video option with no video streams) or that it is a private option of some decoder which was not actually used for any stream.\nStream mapping:\n  Stream #0:0 -> #0:0 (h264 (native) -> hevc (libx265))\nPress [q] to stop, [?] for help\n[libx265 @ 000001f610174c80] Unknown option: \"aq-mode.\nx265 [info]: HEVC encoder version 4.1+190-8f11c33ac\nx265 [info]: build info [Windows][GCC 15.1.0][64 bit] 10bit\nx265 [info]: using cpu capabilities: MMX2 SSE2Fast LZCNT SSSE3 SSE4.2 AVX FMA3 BMI2 AVX2\nx265 [info]: Main 10 profile, Level-4.1 (Main tier)\nx265 [info]: Thread pool created using 12 threads\nx265 [info]: Slices                              : 1\nx265 [info]: frame threads / pool features       : 3 / wpp(17 rows)\nx265 [info]: Coding QT: max CU size, min CU size : 64 / 8\nx265 [info]: Residual QT: max TU size, max depth : 32 / 1 inter / 1 intra\nx265 [info]: ME / range / subpel / merge         : star / 57 / 3 / 3\nx265 [info]: Keyframe min / max / scenecut / bias  : 25 / 250 / 40 / 5.00 \nx265 [info]: Lookahead / bframes / badapt        : 25 / 4 / 2\nx265 [info]: b-pyramid / weightp / weightb       : 1 / 1 / 0\nx265 [info]: References / ref-limit  cu / depth  : 4 / on / on\nx265 [info]: AQ: mode / str / qg-size / cu-tree  : 2 / 1.0 / 32 / 1\nx265 [info]: Rate Control / qCompress            : ABR-12000 kbps / 0.60\nx265 [info]: VBV/HRD buffer / max-rate / init    : 12000 / 12000 / 0.750\nx265 [info]: tools: rect limit-modes rd=4 psy-rd=2.00 rdoq=2 psy-rdoq=1.00\nx265 [info]: tools: rskip mode=1 signhide tmvp strong-intra-smoothing lslices=4\nx265 [info]: tools: deblock sao dhdr10-info\nOutput #0, mp4, to 'C:\\Users\\Peter\\Desktop\\stuff\\MIUN\\quantitative_research\\video_compression\\compressed_videos\\BVI-HD\\hevc\\12\\Typing_1920x1080_60fps_hevc.mp4':\n  Metadata:\n    major_brand     : isom\n    minor_version   : 512\n    compatible_brands: isomiso2avc1mp41\n    encoder         : Lavf62.3.100\n  Stream #0:0(und): Video: hevc (hev1 / 0x31766568), yuv420p10le(tv, progressive), 1920x1080, q=2-31, 12000 kb/s, 60 fps, 15360 tbn (default)\n    Metadata:\n      encoder         : Lavc62.11.100 libx265\n      handler_name    : VideoHandler\n      vendor_id       : [0][0][0][0]\n    Side data:\n      cpb: bitrate max/min/avg: 12000000/0/12000000 buffer size: 12000000 vbv_delay: N/A\nframe=    0 fps=0.0 q=0.0 size=       0KiB time=N/A bitrate=N/A speed=N/A elapsed=0:00:00.52    \nframe=    0 fps=0.0 q=0.0 size=       0KiB time=N/A bitrate=N/A speed=N/A elapsed=0:00:01.04    \nframe=    0 fps=0.0 q=0.0 size=       0KiB time=N/A bitrate=N/A speed=N/A elapsed=0:00:01.54    \nframe=    0 fps=0.0 q=0.0 size=       0KiB time=N/A bitrate=N/A speed=N/A elapsed=0:00:02.07    \nframe=    0 fps=0.0 q=0.0 size=       0KiB time=N/A bitrate=N/A speed=N/A elapsed=0:00:02.59    \nframe=    0 fps=0.0 q=0.0 size=       0KiB time=N/A bitrate=N/A speed=N/A elapsed=0:00:03.11    \nframe=    0 fps=0.0 q=0.0 size=       0KiB time=N/A bitrate=N/A speed=N/A elapsed=0:00:03.64    \nframe=    0 fps=0.0 q=0.0 size=       0KiB time=N/A bitrate=N/A speed=N/A elapsed=0:00:04.16    \nframe=    0 fps=0.0 q=0.0 size=       0KiB time=N/A bitrate=N/A speed=N/A elapsed=0:00:04.67    \nframe=    0 fps=0.0 q=0.0 size=       0KiB time=N/A bitrate=N/A speed=N/A elapsed=0:00:05.19    \nframe=    0 fps=0.0 q=0.0 size=       0KiB time=N/A bitrate=N/A speed=N/A elapsed=0:00:05.71    \nframe=    1 fps=0.2 q=21.7 size=       0KiB time=-00:00:00.01 bitrate=N/A speed=N/A elapsed=0:00:06.22    \nframe=    1 fps=0.1 q=21.7 size=       0KiB time=-00:00:00.01 bitrate=N/A speed=N/A elapsed=0:00:06.74    \nframe=    2 fps=0.3 q=23.1 size=       0KiB time=00:00:00.00 bitrate=N/A speed=   0x elapsed=0:00:07.26    \nframe=    2 fps=0.3 q=23.1 size=       0KiB time=00:00:00.00 bitrate=N/A speed=   0x elapsed=0:00:07.76    \nframe=    3 fps=0.4 q=29.1 size=       0KiB time=00:00:00.01 bitrate=  21.1kbits/s speed=0.00201x elapsed=0:00:08.28    \nframe=    4 fps=0.5 q=29.1 size=       0KiB time=00:00:00.03 bitrate=  10.6kbits/s speed=0.00379x elapsed=0:00:08.79    \nframe=    4 fps=0.4 q=29.1 size=       0KiB time=00:00:00.03 bitrate=  10.6kbits/s speed=0.00358x elapsed=0:00:09.31    \nframe=    4 fps=0.4 q=29.1 size=       0KiB time=00:00:00.03 bitrate=  10.6kbits/s speed=0.00339x elapsed=0:00:09.83    \nframe=    4 fps=0.4 q=29.1 size=       0KiB time=00:00:00.03 bitrate=  10.6kbits/s speed=0.00322x elapsed=0:00:10.34    \nframe=    5 fps=0.5 q=28.6 size=       0KiB time=00:00:00.05 bitrate=   7.0kbits/s speed=0.0046x elapsed=0:00:10.86    \nframe=    5 fps=0.4 q=28.6 size=       0KiB time=00:00:00.05 bitrate=   7.0kbits/s speed=0.00439x elapsed=0:00:11.38    \nframe=    6 fps=0.5 q=27.6 size=       0KiB time=00:00:00.06 bitrate=   5.3kbits/s speed=0.00561x elapsed=0:00:11.89    \nframe=    6 fps=0.5 q=27.6 size=       0KiB time=00:00:00.06 bitrate=   5.3kbits/s speed=0.00537x elapsed=0:00:12.41    \nframe=    7 fps=0.5 q=21.0 size=       0KiB time=00:00:00.08 bitrate=   4.2kbits/s speed=0.00645x elapsed=0:00:12.92    \nframe=    7 fps=0.5 q=21.0 size=       0KiB time=00:00:00.08 bitrate=   4.2kbits/s speed=0.0062x elapsed=0:00:13.44    \nframe=    8 fps=0.6 q=22.7 size=       0KiB time=00:00:00.10 bitrate=   3.5kbits/s speed=0.00716x elapsed=0:00:13.96    \nframe=    8 fps=0.6 q=22.7 size=       0KiB time=00:00:00.10 bitrate=   3.5kbits/s speed=0.00691x elapsed=0:00:14.47    \nframe=    8 fps=0.5 q=22.7 size=       0KiB time=00:00:00.10 bitrate=   3.5kbits/s speed=0.00667x elapsed=0:00:14.99    \nframe=    9 fps=0.6 q=24.3 size=       0KiB time=00:00:00.11 bitrate=   3.0kbits/s speed=0.00752x elapsed=0:00:15.51    \nframe=    9 fps=0.6 q=24.3 size=       0KiB time=00:00:00.11 bitrate=   3.0kbits/s speed=0.00728x elapsed=0:00:16.03    \nframe=   10 fps=0.6 q=23.4 size=       0KiB time=00:00:00.13 bitrate=   2.6kbits/s speed=0.00805x elapsed=0:00:16.55    \nframe=   10 fps=0.6 q=23.4 size=       0KiB time=00:00:00.13 bitrate=   2.6kbits/s speed=0.00781x elapsed=0:00:17.06    \nframe=   11 fps=0.6 q=19.9 size=       0KiB time=00:00:00.15 bitrate=   2.3kbits/s speed=0.00853x elapsed=0:00:17.58    \nframe=   12 fps=0.7 q=22.3 size=       0KiB time=00:00:00.16 bitrate=   2.1kbits/s speed=0.0092x elapsed=0:00:18.10    \nframe=   12 fps=0.6 q=22.3 size=       0KiB time=00:00:00.16 bitrate=   2.1kbits/s speed=0.00895x elapsed=0:00:18.61    \nframe=   12 fps=0.6 q=22.3 size=       0KiB time=00:00:00.16 bitrate=   2.1kbits/s speed=0.00871x elapsed=0:00:19.13    \nframe=   12 fps=0.6 q=22.3 size=       0KiB time=00:00:00.16 bitrate=   2.1kbits/s speed=0.00849x elapsed=0:00:19.64    \nframe=   13 fps=0.6 q=24.3 size=     256KiB time=00:00:00.18 bitrate=11441.0kbits/s speed=0.00909x elapsed=0:00:20.16    \nframe=   13 fps=0.6 q=24.3 size=     256KiB time=00:00:00.18 bitrate=11441.0kbits/s speed=0.00886x elapsed=0:00:20.68    \nframe=   14 fps=0.7 q=24.4 size=     256KiB time=00:00:00.20 bitrate=10487.5kbits/s speed=0.00944x elapsed=0:00:21.18    \nframe=   14 fps=0.6 q=24.4 size=     256KiB time=00:00:00.20 bitrate=10487.5kbits/s speed=0.00921x elapsed=0:00:21.71    \nframe=   14 fps=0.6 q=24.4 size=     256KiB time=00:00:00.20 bitrate=10487.5kbits/s speed=0.009x elapsed=0:00:22.21    \nframe=   15 fps=0.7 q=19.0 size=     256KiB time=00:00:00.21 bitrate=9680.8kbits/s speed=0.00953x elapsed=0:00:22.74    \nframe=   15 fps=0.6 q=19.0 size=     256KiB time=00:00:00.21 bitrate=9680.8kbits/s speed=0.00931x elapsed=0:00:23.26    \nframe=   16 fps=0.7 q=22.8 size=     256KiB time=00:00:00.23 bitrate=8989.3kbits/s speed=0.00982x elapsed=0:00:23.76    \nframe=   16 fps=0.7 q=22.8 size=     256KiB time=00:00:00.23 bitrate=8989.3kbits/s speed=0.00961x elapsed=0:00:24.28    \nframe=   16 fps=0.6 q=22.8 size=     256KiB time=00:00:00.23 bitrate=8989.3kbits/s speed=0.0094x elapsed=0:00:24.81    \nframe=   16 fps=0.6 q=22.8 size=     256KiB time=00:00:00.23 bitrate=8989.3kbits/s speed=0.0092x elapsed=0:00:25.35    \nframe=   16 fps=0.6 q=22.8 size=     256KiB time=00:00:00.23 bitrate=8989.3kbits/s speed=0.00901x elapsed=0:00:25.88    \nframe=   16 fps=0.6 q=22.8 size=     256KiB time=00:00:00.23 bitrate=8989.3kbits/s speed=0.00883x elapsed=0:00:26.42    \nframe=   16 fps=0.6 q=22.8 size=     256KiB time=00:00:00.23 bitrate=8989.3kbits/s speed=0.00866x elapsed=0:00:26.95    \nframe=   16 fps=0.6 q=22.8 size=     256KiB time=00:00:00.23 bitrate=8989.3kbits/s speed=0.00849x elapsed=0:00:27.47    \nframe=   17 fps=0.6 q=24.0 size=     256KiB time=00:00:00.25 bitrate=8390.0kbits/s speed=0.00893x elapsed=0:00:27.99    \nframe=   17 fps=0.6 q=24.0 size=     256KiB time=00:00:00.25 bitrate=8390.0kbits/s speed=0.00877x elapsed=0:00:28.51    \nframe=   17 fps=0.6 q=24.0 size=     256KiB time=00:00:00.25 bitrate=8390.0kbits/s speed=0.00861x elapsed=0:00:29.03    \nframe=   17 fps=0.6 q=24.0 size=     256KiB time=00:00:00.25 bitrate=8390.0kbits/s speed=0.00846x elapsed=0:00:29.56    \nframe=   17 fps=0.6 q=24.0 size=     256KiB time=00:00:00.25 bitrate=8390.0kbits/s speed=0.0083x elapsed=0:00:30.10    \nframe=   17 fps=0.6 q=24.0 size=     256KiB time=00:00:00.25 bitrate=8390.0kbits/s speed=0.00816x elapsed=0:00:30.63    \nframe=   17 fps=0.5 q=24.0 size=     256KiB time=00:00:00.25 bitrate=8390.0kbits/s speed=0.00802x elapsed=0:00:31.15    \nframe=   18 fps=0.6 q=24.2 size=     256KiB time=00:00:00.26 bitrate=7865.6kbits/s speed=0.00841x elapsed=0:00:31.71    \nframe=   18 fps=0.6 q=24.2 size=     256KiB time=00:00:00.26 bitrate=7865.6kbits/s speed=0.00827x elapsed=0:00:32.24    \nframe=   18 fps=0.5 q=24.2 size=     256KiB time=00:00:00.26 bitrate=7865.6kbits/s speed=0.00814x elapsed=0:00:32.75    \nframe=   19 fps=0.6 q=18.9 size=     256KiB time=00:00:00.28 bitrate=7403.0kbits/s speed=0.00851x elapsed=0:00:33.28    \nframe=   19 fps=0.6 q=18.9 size=     256KiB time=00:00:00.28 bitrate=7403.0kbits/s speed=0.00838x elapsed=0:00:33.81    \nframe=   19 fps=0.6 q=18.9 size=     256KiB time=00:00:00.28 bitrate=7403.0kbits/s speed=0.00825x elapsed=0:00:34.35    \nframe=   20 fps=0.6 q=22.0 size=     256KiB time=00:00:00.30 bitrate=6991.7kbits/s speed=0.0086x elapsed=0:00:34.88    \nframe=   20 fps=0.6 q=22.0 size=     256KiB time=00:00:00.30 bitrate=6991.7kbits/s speed=0.00847x elapsed=0:00:35.40    \nframe=   20 fps=0.6 q=22.0 size=     256KiB time=00:00:00.30 bitrate=6991.7kbits/s speed=0.00834x elapsed=0:00:35.95    \nframe=   20 fps=0.5 q=22.0 size=     256KiB time=00:00:00.30 bitrate=6991.7kbits/s speed=0.00822x elapsed=0:00:36.48    \nframe=   20 fps=0.5 q=22.0 size=     256KiB time=00:00:00.30 bitrate=6991.7kbits/s speed=0.00811x elapsed=0:00:37.00    \nframe=   20 fps=0.5 q=22.0 size=     256KiB time=00:00:00.30 bitrate=6991.7kbits/s speed=0.00799x elapsed=0:00:37.52    \nframe=   20 fps=0.5 q=22.0 size=     256KiB time=00:00:00.30 bitrate=6991.7kbits/s speed=0.00789x elapsed=0:00:38.02    \nframe=   20 fps=0.5 q=22.0 size=     256KiB time=00:00:00.30 bitrate=6991.7kbits/s speed=0.00778x elapsed=0:00:38.54    \nframe=   20 fps=0.5 q=22.0 size=     256KiB time=00:00:00.30 bitrate=6991.7kbits/s speed=0.00767x elapsed=0:00:39.10    \nframe=   20 fps=0.5 q=22.0 size=     256KiB time=00:00:00.30 bitrate=6991.7kbits/s speed=0.00757x elapsed=0:00:39.62    \nframe=   20 fps=0.5 q=22.0 size=     256KiB time=00:00:00.30 bitrate=6991.7kbits/s speed=0.00747x elapsed=0:00:40.14    \nframe=   20 fps=0.5 q=22.0 size=     256KiB time=00:00:00.30 bitrate=6991.7kbits/s speed=0.00738x elapsed=0:00:40.67    \nframe=   20 fps=0.5 q=22.0 size=     256KiB time=00:00:00.30 bitrate=6991.7kbits/s speed=0.00728x elapsed=0:00:41.21    \nframe=   20 fps=0.5 q=22.0 size=     256KiB time=00:00:00.30 bitrate=6991.7kbits/s speed=0.00719x elapsed=0:00:41.74    \nframe=   21 fps=0.5 q=24.0 size=     256KiB time=00:00:00.31 bitrate=6623.7kbits/s speed=0.00749x elapsed=0:00:42.27    \nframe=   21 fps=0.5 q=24.0 size=     256KiB time=00:00:00.31 bitrate=6623.7kbits/s speed=0.0074x elapsed=0:00:42.80    \nframe=   21 fps=0.5 q=24.0 size=     256KiB time=00:00:00.31 bitrate=6623.7kbits/s speed=0.00731x elapsed=0:00:43.33    \nframe=   21 fps=0.5 q=24.0 size=     256KiB time=00:00:00.31 bitrate=6623.7kbits/s speed=0.00722x elapsed=0:00:43.85    \nframe=   21 fps=0.5 q=24.0 size=     256KiB time=00:00:00.31 bitrate=6623.7kbits/s speed=0.00714x elapsed=0:00:44.36    \nframe=   21 fps=0.5 q=24.0 size=     256KiB time=00:00:00.31 bitrate=6623.7kbits/s speed=0.00705x elapsed=0:00:44.89    \nframe=   21 fps=0.5 q=24.0 size=     256KiB time=00:00:00.31 bitrate=6623.7kbits/s speed=0.00697x elapsed=0:00:45.41    \nframe=   21 fps=0.5 q=24.0 size=     256KiB time=00:00:00.31 bitrate=6623.7kbits/s speed=0.00689x elapsed=0:00:45.95    \nframe=   21 fps=0.5 q=24.0 size=     256KiB time=00:00:00.31 bitrate=6623.7kbits/s speed=0.00681x elapsed=0:00:46.48    \nframe=   22 fps=0.5 q=24.2 size=     256KiB time=00:00:00.33 bitrate=6292.5kbits/s speed=0.00709x elapsed=0:00:46.99    \nframe=   22 fps=0.5 q=24.2 size=     256KiB time=00:00:00.33 bitrate=6292.5kbits/s speed=0.00701x elapsed=0:00:47.52    \nframe=   22 fps=0.5 q=24.2 size=     256KiB time=00:00:00.33 bitrate=6292.5kbits/s speed=0.00694x elapsed=0:00:48.05    \nframe=   22 fps=0.5 q=24.2 size=     256KiB time=00:00:00.33 bitrate=6292.5kbits/s speed=0.00686x elapsed=0:00:48.60    \nframe=   22 fps=0.4 q=24.2 size=     256KiB time=00:00:00.33 bitrate=6292.5kbits/s speed=0.00678x elapsed=0:00:49.16    \nframe=   23 fps=0.5 q=18.6 size=     256KiB time=00:00:00.35 bitrate=5992.9kbits/s speed=0.00704x elapsed=0:00:49.69    \nframe=   23 fps=0.5 q=18.6 size=     256KiB time=00:00:00.35 bitrate=5992.9kbits/s speed=0.00697x elapsed=0:00:50.21    \nframe=   23 fps=0.5 q=18.6 size=     256KiB time=00:00:00.35 bitrate=5992.9kbits/s speed=0.0069x elapsed=0:00:50.74    \nframe=   23 fps=0.4 q=18.6 size=     256KiB time=00:00:00.35 bitrate=5992.9kbits/s speed=0.00683x elapsed=0:00:51.25    \nframe=   23 fps=0.4 q=18.6 size=     256KiB time=00:00:00.35 bitrate=5992.9kbits/s speed=0.00676x elapsed=0:00:51.79    \nframe=   23 fps=0.4 q=18.6 size=     256KiB time=00:00:00.35 bitrate=5992.9kbits/s speed=0.00669x elapsed=0:00:52.31    \nframe=   24 fps=0.5 q=21.5 size=     512KiB time=00:00:00.36 bitrate=11440.0kbits/s speed=0.00694x elapsed=0:00:52.84    \nframe=   24 fps=0.4 q=21.5 size=     512KiB time=00:00:00.36 bitrate=11440.0kbits/s speed=0.00687x elapsed=0:00:53.38    \nframe=   24 fps=0.4 q=21.5 size=     512KiB time=00:00:00.36 bitrate=11440.0kbits/s speed=0.0068x elapsed=0:00:53.90    \nframe=   24 fps=0.4 q=21.5 size=     512KiB time=00:00:00.36 bitrate=11440.0kbits/s speed=0.00674x elapsed=0:00:54.42    \nframe=   25 fps=0.5 q=23.1 size=     512KiB time=00:00:00.38 bitrate=10942.6kbits/s speed=0.00698x elapsed=0:00:54.95    \nframe=   25 fps=0.5 q=23.1 size=     512KiB time=00:00:00.38 bitrate=10942.6kbits/s speed=0.00691x elapsed=0:00:55.47    \nframe=   25 fps=0.4 q=23.1 size=     512KiB time=00:00:00.38 bitrate=10942.6kbits/s speed=0.00685x elapsed=0:00:55.99    \nframe=   25 fps=0.4 q=23.1 size=     512KiB time=00:00:00.38 bitrate=10942.6kbits/s speed=0.00678x elapsed=0:00:56.52    \nframe=   25 fps=0.4 q=23.1 size=     512KiB time=00:00:00.38 bitrate=10942.6kbits/s speed=0.00672x elapsed=0:00:57.05    \nframe=   25 fps=0.4 q=23.1 size=     512KiB time=00:00:00.38 bitrate=10942.6kbits/s speed=0.00665x elapsed=0:00:57.60    \nframe=   25 fps=0.4 q=23.1 size=     512KiB time=00:00:00.38 bitrate=10942.6kbits/s speed=0.00659x elapsed=0:00:58.13    \nframe=   25 fps=0.4 q=23.1 size=     512KiB time=00:00:00.38 bitrate=10942.6kbits/s speed=0.00653x elapsed=0:00:58.66    \nframe=   25 fps=0.4 q=23.1 size=     512KiB time=00:00:00.38 bitrate=10942.6kbits/s speed=0.00648x elapsed=0:00:59.18    \nframe=   25 fps=0.4 q=23.1 size=     512KiB time=00:00:00.38 bitrate=10942.6kbits/s speed=0.00642x elapsed=0:00:59.71    \nframe=   26 fps=0.4 q=22.7 size=     512KiB time=00:00:00.40 bitrate=10486.6kbits/s speed=0.00664x elapsed=0:01:00.24    \nframe=   26 fps=0.4 q=22.7 size=     512KiB time=00:00:00.40 bitrate=10486.6kbits/s speed=0.00658x elapsed=0:01:00.76    \nframe=   26 fps=0.4 q=22.7 size=     512KiB time=00:00:00.40 bitrate=10486.6kbits/s speed=0.00653x elapsed=0:01:01.28    \nframe=   26 fps=0.4 q=22.7 size=     512KiB time=00:00:00.40 bitrate=10486.6kbits/s speed=0.00647x elapsed=0:01:01.80    \nframe=   27 fps=0.4 q=22.8 size=     512KiB time=00:00:00.41 bitrate=10067.2kbits/s speed=0.00669x elapsed=0:01:02.31    \nframe=   27 fps=0.4 q=22.8 size=     512KiB time=00:00:00.41 bitrate=10067.2kbits/s speed=0.00663x elapsed=0:01:02.84    \nframe=   27 fps=0.4 q=22.8 size=     512KiB time=00:00:00.41 bitrate=10067.2kbits/s speed=0.00657x elapsed=0:01:03.38    \nframe=   27 fps=0.4 q=22.8 size=     512KiB time=00:00:00.41 bitrate=10067.2kbits/s speed=0.00652x elapsed=0:01:03.91    \nframe=   27 fps=0.4 q=22.8 size=     512KiB time=00:00:00.41 bitrate=10067.2kbits/s speed=0.00647x elapsed=0:01:04.44    \nframe=   28 fps=0.4 q=18.1 size=     512KiB time=00:00:00.43 bitrate=9680.0kbits/s speed=0.00667x elapsed=0:01:04.96    \nframe=   28 fps=0.4 q=18.1 size=     512KiB time=00:00:00.43 bitrate=9680.0kbits/s speed=0.00662x elapsed=0:01:05.49    \nframe=   28 fps=0.4 q=18.1 size=     512KiB time=00:00:00.43 bitrate=9680.0kbits/s speed=0.00656x elapsed=0:01:06.01    \nframe=   29 fps=0.4 q=22.6 size=     512KiB time=00:00:00.45 bitrate=9321.5kbits/s speed=0.00676x elapsed=0:01:06.53    \nframe=   29 fps=0.4 q=22.6 size=     512KiB time=00:00:00.45 bitrate=9321.5kbits/s speed=0.00671x elapsed=0:01:07.06    \nframe=   29 fps=0.4 q=22.6 size=     512KiB time=00:00:00.45 bitrate=9321.5kbits/s speed=0.00665x elapsed=0:01:07.61    \nframe=   29 fps=0.4 q=22.6 size=     512KiB time=00:00:00.45 bitrate=9321.5kbits/s speed=0.0066x elapsed=0:01:08.14    \nframe=   29 fps=0.4 q=22.6 size=     512KiB time=00:00:00.45 bitrate=9321.5kbits/s speed=0.00655x elapsed=0:01:08.66    \nframe=   30 fps=0.4 q=23.3 size=     512KiB time=00:00:00.46 bitrate=8988.5kbits/s speed=0.00674x elapsed=0:01:09.20    \nframe=   30 fps=0.4 q=23.3 size=     512KiB time=00:00:00.46 bitrate=8988.5kbits/s speed=0.00669x elapsed=0:01:09.74    \nframe=   30 fps=0.4 q=23.3 size=     512KiB time=00:00:00.46 bitrate=8988.5kbits/s speed=0.00664x elapsed=0:01:10.29    \nframe=   30 fps=0.4 q=23.3 size=     512KiB time=00:00:00.46 bitrate=8988.5kbits/s speed=0.00658x elapsed=0:01:10.91    \nframe=   30 fps=0.4 q=23.3 size=     512KiB time=00:00:00.46 bitrate=8988.5kbits/s speed=0.00653x elapsed=0:01:11.45    \nframe=   30 fps=0.4 q=23.3 size=     512KiB time=00:00:00.46 bitrate=8988.5kbits/s speed=0.00648x elapsed=0:01:11.96    \nframe=   30 fps=0.4 q=23.3 size=     512KiB time=00:00:00.46 bitrate=8988.5kbits/s speed=0.00643x elapsed=0:01:12.52    \nframe=   31 fps=0.4 q=22.7 size=     512KiB time=00:00:00.48 bitrate=8678.6kbits/s speed=0.00662x elapsed=0:01:13.05    \nframe=   31 fps=0.4 q=22.7 size=     512KiB time=00:00:00.48 bitrate=8678.6kbits/s speed=0.00657x elapsed=0:01:13.58    \nframe=   31 fps=0.4 q=22.7 size=     512KiB time=00:00:00.48 bitrate=8678.6kbits/s speed=0.00652x elapsed=0:01:14.12    \nframe=   31 fps=0.4 q=22.7 size=     512KiB time=00:00:00.48 bitrate=8678.6kbits/s speed=0.00647x elapsed=0:01:14.65    \nframe=   31 fps=0.4 q=22.7 size=     512KiB time=00:00:00.48 bitrate=8678.6kbits/s speed=0.00643x elapsed=0:01:15.17    \nframe=   32 fps=0.4 q=22.6 size=     512KiB time=00:00:00.50 bitrate=8389.3kbits/s speed=0.0066x elapsed=0:01:15.73    \nframe=   32 fps=0.4 q=22.6 size=     512KiB time=00:00:00.50 bitrate=8389.3kbits/s speed=0.00656x elapsed=0:01:16.25    \nframe=   32 fps=0.4 q=22.6 size=     512KiB time=00:00:00.50 bitrate=8389.3kbits/s speed=0.00651x elapsed=0:01:16.79    \nframe=   32 fps=0.4 q=22.6 size=     512KiB time=00:00:00.50 bitrate=8389.3kbits/s speed=0.00647x elapsed=0:01:17.29    \nframe=   32 fps=0.4 q=22.6 size=     512KiB time=00:00:00.50 bitrate=8389.3kbits/s speed=0.00642x elapsed=0:01:17.82    \nframe=   32 fps=0.4 q=22.6 size=     512KiB time=00:00:00.50 bitrate=8389.3kbits/s speed=0.00638x elapsed=0:01:18.34    \nframe=   33 fps=0.4 q=18.0 size=     512KiB time=00:00:00.51 bitrate=8118.7kbits/s speed=0.00655x elapsed=0:01:18.89    \nframe=   33 fps=0.4 q=18.0 size=     512KiB time=00:00:00.51 bitrate=8118.7kbits/s speed=0.00651x elapsed=0:01:19.41    \nframe=   33 fps=0.4 q=18.0 size=     512KiB time=00:00:00.51 bitrate=8118.7kbits/s speed=0.00646x elapsed=0:01:19.92    \nframe=   34 fps=0.4 q=18.3 size=     512KiB time=00:00:00.53 bitrate=7865.0kbits/s speed=0.00663x elapsed=0:01:20.45    \nframe=   34 fps=0.4 q=18.3 size=     512KiB time=00:00:00.53 bitrate=7865.0kbits/s speed=0.00659x elapsed=0:01:20.97    \nframe=   35 fps=0.4 q=23.5 size=     768KiB time=00:00:00.55 bitrate=11439.7kbits/s speed=0.00675x elapsed=0:01:21.50    \nframe=   35 fps=0.4 q=23.5 size=     768KiB time=00:00:00.55 bitrate=11439.7kbits/s speed=0.00671x elapsed=0:01:22.02    \nframe=   35 fps=0.4 q=23.5 size=     768KiB time=00:00:00.55 bitrate=11439.7kbits/s speed=0.00666x elapsed=0:01:22.57    \nframe=   35 fps=0.4 q=23.5 size=     768KiB time=00:00:00.55 bitrate=11439.7kbits/s speed=0.00662x elapsed=0:01:23.09    \nframe=   35 fps=0.4 q=23.5 size=     768KiB time=00:00:00.55 bitrate=11439.7kbits/s speed=0.00658x elapsed=0:01:23.60    \nframe=   35 fps=0.4 q=23.5 size=     768KiB time=00:00:00.55 bitrate=11439.7kbits/s speed=0.00654x elapsed=0:01:24.13    \nframe=   35 fps=0.4 q=23.5 size=     768KiB time=00:00:00.55 bitrate=11439.7kbits/s speed=0.0065x elapsed=0:01:24.67    \nframe=   35 fps=0.4 q=23.5 size=     768KiB time=00:00:00.55 bitrate=11439.7kbits/s speed=0.00646x elapsed=0:01:25.19    \nframe=   35 fps=0.4 q=23.5 size=     768KiB time=00:00:00.55 bitrate=11439.7kbits/s speed=0.00642x elapsed=0:01:25.71    \nframe=   35 fps=0.4 q=23.5 size=     768KiB time=00:00:00.55 bitrate=11439.7kbits/s speed=0.00638x elapsed=0:01:26.22    \nframe=   36 fps=0.4 q=23.6 size=     768KiB time=00:00:00.56 bitrate=11103.2kbits/s speed=0.00653x elapsed=0:01:26.73    \nframe=   36 fps=0.4 q=23.6 size=     768KiB time=00:00:00.56 bitrate=11103.2kbits/s speed=0.00649x elapsed=0:01:27.24    \nframe=   36 fps=0.4 q=23.6 size=     768KiB time=00:00:00.56 bitrate=11103.2kbits/s speed=0.00645x elapsed=0:01:27.79    \nframe=   37 fps=0.4 q=24.0 size=     768KiB time=00:00:00.58 bitrate=10786.0kbits/s speed=0.0066x elapsed=0:01:28.32    \nframe=   37 fps=0.4 q=24.0 size=     768KiB time=00:00:00.58 bitrate=10786.0kbits/s speed=0.00656x elapsed=0:01:28.87    \nframe=   37 fps=0.4 q=24.0 size=     768KiB time=00:00:00.58 bitrate=10786.0kbits/s speed=0.00652x elapsed=0:01:29.40    \nframe=   37 fps=0.4 q=24.0 size=     768KiB time=00:00:00.58 bitrate=10786.0kbits/s speed=0.00649x elapsed=0:01:29.92    \nframe=   38 fps=0.4 q=17.8 size=     768KiB time=00:00:00.60 bitrate=10486.3kbits/s speed=0.00663x elapsed=0:01:30.44    \nframe=   38 fps=0.4 q=17.8 size=     768KiB time=00:00:00.60 bitrate=10486.3kbits/s speed=0.0066x elapsed=0:01:30.96    \nframe=   38 fps=0.4 q=17.8 size=     768KiB time=00:00:00.60 bitrate=10486.3kbits/s speed=0.00656x elapsed=0:01:31.48    \nframe=   38 fps=0.4 q=17.8 size=     768KiB time=00:00:00.60 bitrate=10486.3kbits/s speed=0.00652x elapsed=0:01:32.01    \nframe=   38 fps=0.4 q=17.8 size=     768KiB time=00:00:00.60 bitrate=10486.3kbits/s speed=0.00648x elapsed=0:01:32.55    \nframe=   39 fps=0.4 q=20.9 size=     768KiB time=00:00:00.61 bitrate=10202.9kbits/s speed=0.00663x elapsed=0:01:33.06    \nframe=   39 fps=0.4 q=20.9 size=     768KiB time=00:00:00.61 bitrate=10202.9kbits/s speed=0.00659x elapsed=0:01:33.58    \nframe=   39 fps=0.4 q=20.9 size=     768KiB time=00:00:00.61 bitrate=10202.9kbits/s speed=0.00655x elapsed=0:01:34.10    \nframe=   39 fps=0.4 q=20.9 size=     768KiB time=00:00:00.61 bitrate=10202.9kbits/s speed=0.00652x elapsed=0:01:34.62    \nframe=   39 fps=0.4 q=20.9 size=     768KiB time=00:00:00.61 bitrate=10202.9kbits/s speed=0.00648x elapsed=0:01:35.14    \nframe=   40 fps=0.4 q=23.7 size=     768KiB time=00:00:00.63 bitrate=9934.4kbits/s speed=0.00662x elapsed=0:01:35.68    \nframe=   40 fps=0.4 q=23.7 size=     768KiB time=00:00:00.63 bitrate=9934.4kbits/s speed=0.00658x elapsed=0:01:36.20    \nframe=   40 fps=0.4 q=23.7 size=     768KiB time=00:00:00.63 bitrate=9934.4kbits/s speed=0.00655x elapsed=0:01:36.72    \nframe=   40 fps=0.4 q=23.7 size=     768KiB time=00:00:00.63 bitrate=9934.4kbits/s speed=0.00651x elapsed=0:01:37.24    \nframe=   40 fps=0.4 q=23.7 size=     768KiB time=00:00:00.63 bitrate=9934.4kbits/s speed=0.00648x elapsed=0:01:37.77    \nframe=   40 fps=0.4 q=23.7 size=     768KiB time=00:00:00.63 bitrate=9934.4kbits/s speed=0.00644x elapsed=0:01:38.30    \nframe=   40 fps=0.4 q=23.7 size=     768KiB time=00:00:00.63 bitrate=9934.4kbits/s speed=0.00641x elapsed=0:01:38.82    \nframe=   41 fps=0.4 q=23.0 size=     768KiB time=00:00:00.65 bitrate=9679.7kbits/s speed=0.00654x elapsed=0:01:39.34    \nframe=   41 fps=0.4 q=23.0 size=     768KiB time=00:00:00.65 bitrate=9679.7kbits/s speed=0.00651x elapsed=0:01:39.88    \nframe=   41 fps=0.4 q=23.0 size=     768KiB time=00:00:00.65 bitrate=9679.7kbits/s speed=0.00647x elapsed=0:01:40.41    \nframe=   42 fps=0.4 q=22.9 size=     768KiB time=00:00:00.66 bitrate=9437.7kbits/s speed=0.00661x elapsed=0:01:40.92    \nframe=   42 fps=0.4 q=22.9 size=     768KiB time=00:00:00.66 bitrate=9437.7kbits/s speed=0.00657x elapsed=0:01:41.44    \nframe=   42 fps=0.4 q=22.9 size=     768KiB time=00:00:00.66 bitrate=9437.7kbits/s speed=0.00654x elapsed=0:01:41.96    \nframe=   43 fps=0.4 q=17.6 size=     768KiB time=00:00:00.68 bitrate=9207.5kbits/s speed=0.00667x elapsed=0:01:42.52    \nframe=   43 fps=0.4 q=17.6 size=     768KiB time=00:00:00.68 bitrate=9207.5kbits/s speed=0.00663x elapsed=0:01:43.04    \nframe=   43 fps=0.4 q=17.6 size=     768KiB time=00:00:00.68 bitrate=9207.5kbits/s speed=0.0066x elapsed=0:01:43.56    \nframe=   43 fps=0.4 q=17.6 size=     768KiB time=00:00:00.68 bitrate=9207.5kbits/s speed=0.00656x elapsed=0:01:44.08    \nframe=   44 fps=0.4 q=22.5 size=     768KiB time=00:00:00.70 bitrate=8988.3kbits/s speed=0.00669x elapsed=0:01:44.60    \nframe=   44 fps=0.4 q=22.5 size=     768KiB time=00:00:00.70 bitrate=8988.3kbits/s speed=0.00666x elapsed=0:01:45.11    \nframe=   45 fps=0.4 q=23.1 size=     768KiB time=00:00:00.71 bitrate=8779.3kbits/s speed=0.00678x elapsed=0:01:45.64    \nframe=   45 fps=0.4 q=23.1 size=     768KiB time=00:00:00.71 bitrate=8779.3kbits/s speed=0.00675x elapsed=0:01:46.16    \nframe=   45 fps=0.4 q=23.1 size=     768KiB time=00:00:00.71 bitrate=8779.3kbits/s speed=0.00672x elapsed=0:01:46.68    \nframe=   46 fps=0.4 q=22.8 size=    1024KiB time=00:00:00.73 bitrate=11439.5kbits/s speed=0.00684x elapsed=0:01:47.19    \nframe=   46 fps=0.4 q=22.8 size=    1024KiB time=00:00:00.73 bitrate=11439.5kbits/s speed=0.00681x elapsed=0:01:47.70    \nframe=   46 fps=0.4 q=22.8 size=    1024KiB time=00:00:00.73 bitrate=11439.5kbits/s speed=0.00678x elapsed=0:01:48.21    \nframe=   47 fps=0.4 q=22.3 size=    1024KiB time=00:00:00.75 bitrate=11185.3kbits/s speed=0.0069x elapsed=0:01:48.73    \nframe=   48 fps=0.4 q=17.6 size=    1024KiB time=00:00:00.76 bitrate=10942.1kbits/s speed=0.00702x elapsed=0:01:49.26    \nframe=   48 fps=0.4 q=17.6 size=    1024KiB time=00:00:00.76 bitrate=10942.1kbits/s speed=0.00698x elapsed=0:01:49.76    \nframe=   49 fps=0.4 q=22.0 size=    1024KiB time=00:00:00.78 bitrate=10709.3kbits/s speed=0.0071x elapsed=0:01:50.28    \nframe=   50 fps=0.5 q=22.6 size=    1024KiB time=00:00:00.80 bitrate=10486.2kbits/s speed=0.00722x elapsed=0:01:50.80    \nframe=   50 fps=0.4 q=22.6 size=    1024KiB time=00:00:00.80 bitrate=10486.2kbits/s speed=0.00719x elapsed=0:01:51.33    \nframe=   51 fps=0.5 q=22.3 size=    1024KiB time=00:00:00.81 bitrate=10272.2kbits/s speed=0.0073x elapsed=0:01:51.85    \nframe=   51 fps=0.5 q=22.3 size=    1024KiB time=00:00:00.81 bitrate=10272.2kbits/s speed=0.00727x elapsed=0:01:52.35    \nframe=   52 fps=0.5 q=22.3 size=    1024KiB time=00:00:00.83 bitrate=10066.8kbits/s speed=0.00738x elapsed=0:01:52.88    \nframe=   52 fps=0.5 q=22.3 size=    1024KiB time=00:00:00.83 bitrate=10066.8kbits/s speed=0.00735x elapsed=0:01:53.39    \nframe=   53 fps=0.5 q=17.8 size=    1024KiB time=00:00:00.85 bitrate=9869.4kbits/s speed=0.00746x elapsed=0:01:53.91    \nframe=   54 fps=0.5 q=22.3 size=    1024KiB time=00:00:00.86 bitrate=9679.6kbits/s speed=0.00757x elapsed=0:01:54.43    \nframe=   55 fps=0.5 q=23.0 size=    1024KiB time=00:00:00.88 bitrate=9496.9kbits/s speed=0.00769x elapsed=0:01:54.94    \nframe=   55 fps=0.5 q=23.0 size=    1024KiB time=00:00:00.88 bitrate=9496.9kbits/s speed=0.00765x elapsed=0:01:55.45    \nframe=   55 fps=0.5 q=23.0 size=    1024KiB time=00:00:00.88 bitrate=9496.9kbits/s speed=0.00762x elapsed=0:01:55.97    \nframe=   56 fps=0.5 q=22.6 size=    1024KiB time=00:00:00.90 bitrate=9321.1kbits/s speed=0.00773x elapsed=0:01:56.48    \nframe=   57 fps=0.5 q=22.5 size=    1024KiB time=00:00:00.90 bitrate=9321.1kbits/s speed=0.00769x elapsed=0:01:57.01    \nframe=   57 fps=0.5 q=22.5 size=    1024KiB time=00:00:00.91 bitrate=9151.6kbits/s speed=0.0078x elapsed=0:01:57.53    \nframe=   58 fps=0.5 q=17.3 size=    1024KiB time=00:00:00.93 bitrate=8988.2kbits/s speed=0.00791x elapsed=0:01:58.05    \nframe=   59 fps=0.5 q=20.9 size=    1280KiB time=00:00:00.95 bitrate=11038.0kbits/s speed=0.00801x elapsed=0:01:58.58    \nframe=   59 fps=0.5 q=20.9 size=    1280KiB time=00:00:00.95 bitrate=11038.0kbits/s speed=0.00798x elapsed=0:01:59.10    \nframe=   59 fps=0.5 q=20.9 size=    1280KiB time=00:00:00.95 bitrate=11038.0kbits/s speed=0.00794x elapsed=0:01:59.60    \nframe=   60 fps=0.5 q=22.3 size=    1280KiB time=00:00:00.96 bitrate=10847.7kbits/s speed=0.00805x elapsed=0:02:00.13    \nframe=   61 fps=0.5 q=22.3 size=    1280KiB time=00:00:00.98 bitrate=10663.8kbits/s speed=0.00815x elapsed=0:02:00.65    \nframe=   61 fps=0.5 q=22.3 size=    1280KiB time=00:00:00.98 bitrate=10663.8kbits/s speed=0.00812x elapsed=0:02:01.15    \nframe=   62 fps=0.5 q=17.4 size=    1280KiB time=00:00:01.00 bitrate=10486.1kbits/s speed=0.00822x elapsed=0:02:01.67    \nframe=   62 fps=0.5 q=17.4 size=    1280KiB time=00:00:01.00 bitrate=10486.1kbits/s speed=0.00818x elapsed=0:02:02.19    \nframe=   63 fps=0.5 q=19.8 size=    1280KiB time=00:00:01.01 bitrate=10314.2kbits/s speed=0.00829x elapsed=0:02:02.70    \nframe=   64 fps=0.5 q=22.4 size=    1280KiB time=00:00:01.03 bitrate=10147.9kbits/s speed=0.00839x elapsed=0:02:03.22    \nframe=   64 fps=0.5 q=22.4 size=    1280KiB time=00:00:01.03 bitrate=10147.9kbits/s speed=0.00835x elapsed=0:02:03.73    \nframe=   64 fps=0.5 q=22.4 size=    1280KiB time=00:00:01.03 bitrate=10147.9kbits/s speed=0.00832x elapsed=0:02:04.25    \nframe=   65 fps=0.5 q=22.1 size=    1280KiB time=00:00:01.05 bitrate=9986.8kbits/s speed=0.00842x elapsed=0:02:04.77    \nframe=   66 fps=0.5 q=22.6 size=    1280KiB time=00:00:01.06 bitrate=9830.7kbits/s speed=0.00851x elapsed=0:02:05.28    \nframe=   66 fps=0.5 q=22.6 size=    1280KiB time=00:00:01.06 bitrate=9830.7kbits/s speed=0.00848x elapsed=0:02:05.80    \nframe=   67 fps=0.5 q=17.5 size=    1280KiB time=00:00:01.08 bitrate=9679.5kbits/s speed=0.00858x elapsed=0:02:06.32    \nframe=   68 fps=0.5 q=20.2 size=    1536KiB time=00:00:01.10 bitrate=11439.3kbits/s speed=0.00867x elapsed=0:02:06.82    \nframe=   69 fps=0.5 q=22.7 size=    1536KiB time=00:00:01.11 bitrate=11268.6kbits/s speed=0.00877x elapsed=0:02:07.35    \nframe=   69 fps=0.5 q=22.7 size=    1536KiB time=00:00:01.11 bitrate=11268.6kbits/s speed=0.00873x elapsed=0:02:07.87    \nframe=   69 fps=0.5 q=22.7 size=    1536KiB time=00:00:01.11 bitrate=11268.6kbits/s speed=0.0087x elapsed=0:02:08.39    \nframe=   70 fps=0.5 q=22.8 size=    1536KiB time=00:00:01.13 bitrate=11102.9kbits/s speed=0.00879x elapsed=0:02:08.91    \nframe=   70 fps=0.5 q=22.8 size=    1536KiB time=00:00:01.13 bitrate=11102.9kbits/s speed=0.00876x elapsed=0:02:09.42    \nframe=   71 fps=0.5 q=22.8 size=    1536KiB time=00:00:01.15 bitrate=10942.0kbits/s speed=0.00885x elapsed=0:02:09.94    \nframe=   71 fps=0.5 q=22.8 size=    1536KiB time=00:00:01.15 bitrate=10942.0kbits/s speed=0.00881x elapsed=0:02:10.46    \nframe=   72 fps=0.5 q=17.2 size=    1536KiB time=00:00:01.16 bitrate=10785.7kbits/s speed=0.00891x elapsed=0:02:10.97    \nframe=   73 fps=0.6 q=19.4 size=    1536KiB time=00:00:01.18 bitrate=10633.7kbits/s speed=0.009x elapsed=0:02:11.49    \nframe=   73 fps=0.6 q=19.4 size=    1536KiB time=00:00:01.18 bitrate=10633.7kbits/s speed=0.00896x elapsed=0:02:11.99    \nframe=   74 fps=0.6 q=23.8 size=    1536KiB time=00:00:01.20 bitrate=10486.1kbits/s speed=0.00905x elapsed=0:02:12.52    \nframe=   74 fps=0.6 q=23.8 size=    1536KiB time=00:00:01.20 bitrate=10486.1kbits/s speed=0.00902x elapsed=0:02:13.02    \nframe=   74 fps=0.6 q=23.8 size=    1536KiB time=00:00:01.20 bitrate=10486.1kbits/s speed=0.00899x elapsed=0:02:13.55    \nframe=   75 fps=0.6 q=23.5 size=    1536KiB time=00:00:01.21 bitrate=10342.4kbits/s speed=0.00907x elapsed=0:02:14.07    \nframe=   75 fps=0.6 q=23.5 size=    1536KiB time=00:00:01.21 bitrate=10342.4kbits/s speed=0.00904x elapsed=0:02:14.58    \nframe=   76 fps=0.6 q=23.7 size=    1536KiB time=00:00:01.23 bitrate=10202.6kbits/s speed=0.00913x elapsed=0:02:15.10    \nframe=   76 fps=0.6 q=23.7 size=    1536KiB time=00:00:01.23 bitrate=10202.6kbits/s speed=0.00909x elapsed=0:02:15.60    \nframe=   77 fps=0.6 q=17.7 size=    1536KiB time=00:00:01.25 bitrate=10066.6kbits/s speed=0.00918x elapsed=0:02:16.13    \nframe=   78 fps=0.6 q=19.6 size=    1792KiB time=00:00:01.26 bitrate=11589.8kbits/s speed=0.00927x elapsed=0:02:16.64    \nframe=   79 fps=0.6 q=23.6 size=    1792KiB time=00:00:01.28 bitrate=11439.3kbits/s speed=0.00936x elapsed=0:02:17.16    \nframe=   79 fps=0.6 q=23.6 size=    1792KiB time=00:00:01.28 bitrate=11439.3kbits/s speed=0.00932x elapsed=0:02:17.68    \nframe=   80 fps=0.6 q=23.7 size=    1792KiB time=00:00:01.30 bitrate=11292.6kbits/s speed=0.00941x elapsed=0:02:18.19    \nframe=   80 fps=0.6 q=23.7 size=    1792KiB time=00:00:01.30 bitrate=11292.6kbits/s speed=0.00937x elapsed=0:02:18.70    \nframe=   82 fps=0.6 q=17.6 size=    1792KiB time=00:00:01.33 bitrate=11010.3kbits/s speed=0.00958x elapsed=0:02:19.22    \nframe=   83 fps=0.6 q=22.5 size=    1792KiB time=00:00:01.35 bitrate=10874.4kbits/s speed=0.00966x elapsed=0:02:19.73    \nframe=   84 fps=0.6 q=23.9 size=    1792KiB time=00:00:01.36 bitrate=10741.8kbits/s speed=0.00974x elapsed=0:02:20.25    \nframe=   85 fps=0.6 q=23.6 size=    1792KiB time=00:00:01.38 bitrate=10612.4kbits/s speed=0.00983x elapsed=0:02:20.76    \nframe=   87 fps=0.6 q=17.0 size=    1792KiB time=00:00:01.41 bitrate=10362.6kbits/s speed=0.01x elapsed=0:02:21.29    \nframe=   87 fps=0.6 q=17.0 size=    1792KiB time=00:00:01.41 bitrate=10362.6kbits/s speed=0.00999x elapsed=0:02:21.79    \nframe=   89 fps=0.6 q=23.5 size=    2048KiB time=00:00:01.45 bitrate=11570.7kbits/s speed=0.0102x elapsed=0:02:22.31    \nframe=   90 fps=0.6 q=17.6 size=    2048KiB time=00:00:01.46 bitrate=11439.2kbits/s speed=0.0103x elapsed=0:02:22.84    \nframe=   91 fps=0.6 q=21.9 size=    2048KiB time=00:00:01.48 bitrate=11310.7kbits/s speed=0.0103x elapsed=0:02:23.36    \nframe=   92 fps=0.6 q=22.8 size=    2048KiB time=00:00:01.50 bitrate=11185.0kbits/s speed=0.0104x elapsed=0:02:23.87    \nframe=   93 fps=0.6 q=22.8 size=    2048KiB time=00:00:01.51 bitrate=11062.1kbits/s speed=0.0105x elapsed=0:02:24.39    \nframe=   94 fps=0.6 q=22.8 size=    2048KiB time=00:00:01.53 bitrate=10941.9kbits/s speed=0.0106x elapsed=0:02:24.91    \nframe=   95 fps=0.7 q=17.4 size=    2048KiB time=00:00:01.55 bitrate=10824.2kbits/s speed=0.0107x elapsed=0:02:25.42    \nframe=   97 fps=0.7 q=23.1 size=    2048KiB time=00:00:01.58 bitrate=10596.4kbits/s speed=0.0108x elapsed=0:02:25.94    \nframe=   97 fps=0.7 q=23.1 size=    2048KiB time=00:00:01.58 bitrate=10596.4kbits/s speed=0.0108x elapsed=0:02:26.45    \nframe=   99 fps=0.7 q=22.8 size=    2048KiB time=00:00:01.61 bitrate=10377.9kbits/s speed=0.011x elapsed=0:02:26.97    \nframe=  101 fps=0.7 q=20.6 size=    2304KiB time=00:00:01.65 bitrate=11439.2kbits/s speed=0.0112x elapsed=0:02:27.49    \nframe=  102 fps=0.7 q=23.9 size=    2304KiB time=00:00:01.66 bitrate=11324.8kbits/s speed=0.0113x elapsed=0:02:28.00    \nframe=  105 fps=0.7 q=20.3 size=    2304KiB time=00:00:01.71 bitrate=10995.0kbits/s speed=0.0116x elapsed=0:02:28.52    \nframe=  106 fps=0.7 q=22.9 size=    2304KiB time=00:00:01.73 bitrate=10889.3kbits/s speed=0.0116x elapsed=0:02:29.04    \nframe=  108 fps=0.7 q=23.3 size=    2304KiB time=00:00:01.76 bitrate=10683.8kbits/s speed=0.0118x elapsed=0:02:29.57    \nframe=  110 fps=0.7 q=20.8 size=    2560KiB time=00:00:01.80 bitrate=11651.0kbits/s speed=0.012x elapsed=0:02:30.09    \nframe=  112 fps=0.7 q=23.7 size=    2560KiB time=00:00:01.83 bitrate=11439.2kbits/s speed=0.0122x elapsed=0:02:30.59    \nframe=  114 fps=0.8 q=17.2 size=    2560KiB time=00:00:01.86 bitrate=11234.9kbits/s speed=0.0124x elapsed=0:02:31.11    \nframe=  115 fps=0.8 q=21.1 size=    2560KiB time=00:00:01.88 bitrate=11135.5kbits/s speed=0.0124x elapsed=0:02:31.62    \nframe=  117 fps=0.8 q=23.1 size=    2560KiB time=00:00:01.91 bitrate=10941.8kbits/s speed=0.0126x elapsed=0:02:32.14    \nframe=  120 fps=0.8 q=23.5 size=    2816KiB time=00:00:01.96 bitrate=11730.0kbits/s speed=0.0129x elapsed=0:02:32.66    \nframe=  122 fps=0.8 q=23.8 size=    2816KiB time=00:00:02.00 bitrate=11534.5kbits/s speed=0.0131x elapsed=0:02:33.18    \nframe=  124 fps=0.8 q=21.5 size=    2816KiB time=00:00:02.03 bitrate=11345.4kbits/s speed=0.0132x elapsed=0:02:33.69    \nframe=  128 fps=0.8 q=22.9 size=    2816KiB time=00:00:02.10 bitrate=10985.2kbits/s speed=0.0136x elapsed=0:02:34.21    \nframe=  133 fps=0.9 q=23.5 size=    3072KiB time=00:00:02.18 bitrate=11526.5kbits/s speed=0.0141x elapsed=0:02:34.72    \nframe=  137 fps=0.9 q=20.5 size=    3072KiB time=00:00:02.25 bitrate=11185.0kbits/s speed=0.0145x elapsed=0:02:35.24    \nframe=  141 fps=0.9 q=17.0 size=    3328KiB time=00:00:02.31 bitrate=11768.3kbits/s speed=0.0149x elapsed=0:02:35.76    \nframe=  145 fps=0.9 q=23.2 size=    3328KiB time=00:00:02.38 bitrate=11439.2kbits/s speed=0.0153x elapsed=0:02:36.26    \nframe=  150 fps=1.0 q=22.2 size=    3328KiB time=00:00:02.46 bitrate=11052.7kbits/s speed=0.0157x elapsed=0:02:36.78    \nframe=  155 fps=1.0 q=22.7 size=    3584KiB time=00:00:02.55 bitrate=11513.9kbits/s speed=0.0162x elapsed=0:02:37.30    \nframe=  160 fps=1.0 q=21.8 size=    3584KiB time=00:00:02.63 bitrate=11149.6kbits/s speed=0.0167x elapsed=0:02:37.81    \nframe=  165 fps=1.0 q=22.5 size=    3840KiB time=00:00:02.71 bitrate=11579.5kbits/s speed=0.0172x elapsed=0:02:38.33    \nframe=  169 fps=1.1 q=21.9 size=    3840KiB time=00:00:02.78 bitrate=11302.1kbits/s speed=0.0175x elapsed=0:02:38.84    \nframe=  174 fps=1.1 q=21.8 size=    4096KiB time=00:00:02.86 bitrate=11705.2kbits/s speed=0.018x elapsed=0:02:39.37    \nframe=  178 fps=1.1 q=22.2 size=    4096KiB time=00:00:02.93 bitrate=11439.1kbits/s speed=0.0183x elapsed=0:02:39.89    \nframe=  182 fps=1.1 q=21.2 size=    4096KiB time=00:00:03.00 bitrate=11184.9kbits/s speed=0.0187x elapsed=0:02:40.41    \nframe=  185 fps=1.1 q=22.2 size=    4352KiB time=00:00:03.05 bitrate=11689.2kbits/s speed=0.019x elapsed=0:02:40.92    \nframe=  189 fps=1.2 q=22.6 size=    4352KiB time=00:00:03.11 bitrate=11439.1kbits/s speed=0.0193x elapsed=0:02:41.45    \nframe=  194 fps=1.2 q=22.9 size=    4608KiB time=00:00:03.20 bitrate=11796.6kbits/s speed=0.0198x elapsed=0:02:41.96    \nframe=  197 fps=1.2 q=20.7 size=    4608KiB time=00:00:03.25 bitrate=11615.1kbits/s speed=0.02x elapsed=0:02:42.47    \nframe=  202 fps=1.2 q=23.0 size=    4608KiB time=00:00:03.33 bitrate=11324.7kbits/s speed=0.0205x elapsed=0:02:42.98    \nframe=  206 fps=1.3 q=20.4 size=    4864KiB time=00:00:03.40 bitrate=11719.5kbits/s speed=0.0208x elapsed=0:02:43.49    \nframe=  211 fps=1.3 q=22.0 size=    4864KiB time=00:00:03.48 bitrate=11439.1kbits/s speed=0.0212x elapsed=0:02:44.01    \nframe=  215 fps=1.3 q=16.7 size=    5120KiB time=00:00:03.55 bitrate=11815.0kbits/s speed=0.0216x elapsed=0:02:44.53    \nframe=  219 fps=1.3 q=23.2 size=    5120KiB time=00:00:03.61 bitrate=11597.3kbits/s speed=0.0219x elapsed=0:02:45.05    \nframe=  224 fps=1.4 q=22.4 size=    5120KiB time=00:00:03.70 bitrate=11336.1kbits/s speed=0.0223x elapsed=0:02:45.57    \nframe=  228 fps=1.4 q=22.7 size=    5376KiB time=00:00:03.76 bitrate=11692.2kbits/s speed=0.0227x elapsed=0:02:46.08    \nframe=  233 fps=1.4 q=23.4 size=    5376KiB time=00:00:03.85 bitrate=11439.1kbits/s speed=0.0231x elapsed=0:02:46.59    \nframe=  237 fps=1.4 q=23.2 size=    5632KiB time=00:00:03.91 bitrate=11779.8kbits/s speed=0.0234x elapsed=0:02:47.10    \nframe=  242 fps=1.4 q=23.4 size=    5632KiB time=00:00:04.00 bitrate=11534.4kbits/s speed=0.0239x elapsed=0:02:47.62    \nframe=  246 fps=1.5 q=23.4 size=    5888KiB time=00:00:04.06 bitrate=11861.0kbits/s speed=0.0242x elapsed=0:02:48.14    \nframe=  252 fps=1.5 q=16.8 size=    5888KiB time=00:00:04.16 bitrate=11576.4kbits/s speed=0.0247x elapsed=0:02:48.66    \nframe=  256 fps=1.5 q=23.5 size=    6144KiB time=00:00:04.23 bitrate=11889.4kbits/s speed=0.025x elapsed=0:02:49.17    \nframe=  261 fps=1.5 q=23.6 size=    6400KiB time=00:00:04.31 bitrate=12145.7kbits/s speed=0.0254x elapsed=0:02:49.69    \nframe=  266 fps=1.6 q=23.8 size=    6400KiB time=00:00:04.40 bitrate=11915.7kbits/s speed=0.0259x elapsed=0:02:50.20    \nframe=  271 fps=1.6 q=23.6 size=    6400KiB time=00:00:04.48 bitrate=11694.2kbits/s speed=0.0263x elapsed=0:02:50.72    \nframe=  276 fps=1.6 q=23.8 size=    6656KiB time=00:00:04.56 bitrate=11940.1kbits/s speed=0.0267x elapsed=0:02:51.24    \nframe=  280 fps=1.6 q=23.8 size=    6656KiB time=00:00:04.63 bitrate=11768.3kbits/s speed=0.027x elapsed=0:02:51.75    \nframe=  286 fps=1.7 q=23.9 size=    6912KiB time=00:00:04.73 bitrate=11962.7kbits/s speed=0.0275x elapsed=0:02:52.27    \nframe=  291 fps=1.7 q=23.9 size=    6912KiB time=00:00:04.81 bitrate=11755.7kbits/s speed=0.0279x elapsed=0:02:52.79    \nframe=  296 fps=1.7 q=23.7 size=    6912KiB time=00:00:04.90 bitrate=11555.8kbits/s speed=0.0283x elapsed=0:02:53.30    \n[mp4 @ 000001f610175c00] Starting second pass: moving the moov atom to the beginning of the file\n[out#0/mp4 @ 000001f60fc1ab80] video:7243KiB audio:0KiB subtitle:0KiB other streams:0KiB global headers:2KiB muxing overhead: 0.094228%\nframe=  300 fps=1.7 q=23.5 Lsize=    7250KiB time=00:00:04.96 bitrate=11958.3kbits/s speed=0.0286x elapsed=0:02:53.55    \nx265 [info]: frame I:      2, Avg QP:18.29  kb/s: 62069.28\nx265 [info]: frame P:     62, Avg QP:17.43  kb/s: 30923.09\nx265 [info]: frame B:    236, Avg QP:22.71  kb/s: 6433.33 \nx265 [info]: Weighted P-Frames: Y:0.0% UV:0.0%\n\nencoded 300 frames in 173.33s (1.73 fps), 11865.46 kb/s, Avg QP:21.59\n",
  "seconds": 173.8004870414734,
  "probe_out": {}
}